<svg width="16" height="16" viewBox="0 0 16 16" fill="none" xmlns="http://www.w3.org/2000/svg">
<path d="M15.2915 14.5845L11.1425 10.4355C12.0607 9.35406 12.564 7.98115 12.5625 6.5625C12.5625 4.9712 11.9304 3.44509 10.8051 2.31987C9.67993 1.19465 8.1538 0.5625 6.5625 0.5625C4.9712 0.5625 3.44508 1.19465 2.31986 2.31987C1.19464 3.44509 0.5625 4.9712 0.5625 6.5625C0.5625 8.1538 1.19464 9.67993 2.31986 10.8051C3.44508 11.9304 4.9712 12.5625 6.5625 12.5625C7.98111 12.5638 9.35393 12.0605 10.4355 11.1425L14.5845 15.2915C14.6782 15.385 14.8052 15.4375 14.9375 15.4375C15.0032 15.4376 15.0683 15.4248 15.129 15.3997C15.1898 15.3747 15.245 15.3379 15.2915 15.2915C15.3852 15.1977 15.4379 15.0706 15.4379 14.938C15.4379 14.8054 15.3852 14.6783 15.2915 14.5845ZM6.5625 11.5625C5.23683 11.5612 3.96583 11.034 3.02843 10.0966C2.09104 9.15918 1.56382 7.88818 1.5625 6.5625C1.56409 5.23691 2.09139 3.96605 3.02872 3.02872C3.96606 2.09138 5.23691 1.56409 6.5625 1.5625C7.88818 1.56382 9.15918 2.09103 10.0966 3.02843C11.034 3.96582 11.5612 5.23682 11.5625 6.5625C11.5625 7.88858 11.0357 9.16036 10.098 10.098C9.16036 11.0357 7.88859 11.5625 6.5625 11.5625Z" fill="#5961FF"/>
</svg>
